<svg width="240" height="240" viewBox="0 0 240 240" fill="none" xmlns="http://www.w3.org/2000/svg">
<path d="M30 90L120 20L210 90V200C210 205.304 207.893 210.391 204.142 214.142C200.391 217.893 195.304 220 190 220H50C44.6957 220 39.6086 217.893 35.8579 214.142C32.1071 210.391 30 205.304 30 200V90Z" fill="white"/>
<path d="M90 220V120H150V220" fill="white"/>
<path d="M90 220V120H150V220M30 90L120 20L210 90V200C210 205.304 207.893 210.391 204.142 214.142C200.391 217.893 195.304 220 190 220H50C44.6957 220 39.6086 217.893 35.8579 214.142C32.1071 210.391 30 205.304 30 200V90Z" stroke="#1452AE" stroke-width="10" stroke-linecap="round" stroke-linejoin="round"/>
<path d="M120 107C131.046 107 140 98.0457 140 87C140 75.9543 131.046 67 120 67C108.954 67 100 75.9543 100 87C100 98.0457 108.954 107 120 107Z" fill="#64AFDE" stroke="#64AFDE" stroke-width="1.6" stroke-linecap="round" stroke-linejoin="round"/>
</svg>
