<svg width="420" height="420" viewBox="0 0 420 420" fill="none" xmlns="http://www.w3.org/2000/svg">
<path d="M210 385C306.65 385 385 306.65 385 210C385 113.35 306.65 35 210 35C113.35 35 35 113.35 35 210C35 306.65 113.35 385 210 385Z" fill="#2563EB" stroke="#2563EB" stroke-width="2.5" stroke-linecap="round" stroke-linejoin="round"/>
<path d="M120 166L210 96L300 166V276C300 281.304 297.893 286.391 294.142 290.142C290.391 293.893 285.304 296 280 296H140C134.696 296 129.609 293.893 125.858 290.142C122.107 286.391 120 281.304 120 276V166Z" fill="white"/>
<path d="M180 296V196H240V296" fill="white"/>
<path d="M180 296V196H240V296M120 166L210 96L300 166V276C300 281.304 297.893 286.391 294.142 290.142C290.391 293.893 285.304 296 280 296H140C134.696 296 129.609 293.893 125.858 290.142C122.107 286.391 120 281.304 120 276V166Z" stroke="#2563EB" stroke-width="10" stroke-linecap="round" stroke-linejoin="round"/>
<path d="M210 183C221.046 183 230 174.046 230 163C230 151.954 221.046 143 210 143C198.954 143 190 151.954 190 163C190 174.046 198.954 183 210 183Z" fill="#64AFDE" stroke="#6600AA" stroke-opacity="0.372549" stroke-width="1.6" stroke-linecap="round" stroke-linejoin="round"/>
</svg>
